<?xml version="1.0" standalone="no"?>
<!DOCTYPE svg PUBLIC "-//W3C//DTD SVG 20010904//EN"
 "http://www.w3.org/TR/2001/REC-SVG-20010904/DTD/svg10.dtd">
<svg version="1.0" xmlns="http://www.w3.org/2000/svg"
 width="512.000000pt" height="512.000000pt" viewBox="0 0 512.000000 512.000000"
 preserveAspectRatio="xMidYMid meet">

<g transform="translate(0.000000,512.000000) scale(0.100000,-0.100000)"
fill="#000000" stroke="none">
<path d="M1300 3500 c-325 -45 -616 -263 -755 -563 -63 -136 -79 -221 -79
-407 0 -197 16 -269 94 -427 103 -209 252 -354 466 -455 144 -67 215 -82 404
-82 185 -1 254 13 396 78 374 173 598 583 548 1004 l-7 52 -543 0 c-360 0
-544 -3 -544 -10 0 -6 38 -87 85 -180 l85 -170 255 0 c295 0 276 9 220 -109
-120 -250 -352 -373 -607 -320 -152 31 -316 160 -391 306 -156 300 -71 669
196 850 185 126 424 132 602 15 69 -45 151 -128 190 -190 14 -24 32 -42 38
-39 7 2 78 47 159 100 l147 95 -32 48 c-116 176 -367 343 -587 390 -85 18
-258 25 -340 14z"/>
<path d="M3594 3153 c-110 -180 -200 -333 -202 -339 -2 -7 36 -72 84 -146 48
-73 87 -138 87 -143 0 -6 -46 -79 -102 -163 l-102 -152 217 -316 c120 -174
222 -318 228 -320 7 -2 112 -3 235 -2 l223 3 -292 420 c-161 231 -310 446
-332 477 l-38 58 325 469 c179 258 325 472 325 475 0 3 -103 6 -229 6 l-228 0
-199 -327z"/>
<path d="M4413 3460 c-83 -50 -84 -189 -1 -240 96 -59 218 7 218 118 0 85 -56
142 -140 142 -27 0 -58 -8 -77 -20z m114 -10 c8 0 28 -13 44 -29 24 -25 29
-38 29 -79 0 -60 -25 -97 -75 -111 -46 -12 -98 2 -125 36 -28 35 -27 111 1
147 20 26 73 48 97 40 8 -2 20 -4 29 -4z"/>
<path d="M4440 3340 c0 -40 4 -70 10 -70 6 0 10 11 10 25 0 18 5 25 20 25 12
0 25 -10 32 -25 6 -14 17 -25 25 -25 11 0 11 5 -1 29 -14 26 -14 30 -1 41 18
15 19 42 3 58 -7 7 -31 12 -55 12 l-43 0 0 -70z m78 28 c-2 -17 -11 -24 -30
-26 -24 -3 -28 0 -28 22 0 22 4 26 31 26 26 0 30 -3 27 -22z"/>
<path d="M2400 3457 c0 -3 99 -148 295 -432 53 -77 143 -207 200 -290 57 -82
113 -162 124 -177 12 -14 21 -31 21 -37 0 -6 -146 -222 -325 -480 -179 -258
-325 -472 -325 -475 0 -3 100 -6 223 -6 l222 0 151 228 c239 359 479 724 479
726 0 2 -78 122 -300 461 -72 110 -173 264 -224 343 l-93 142 -224 0 c-123 0
-224 -1 -224 -3z"/>
</g>
</svg>
